<svg version="1.0" xmlns="http://www.w3.org/2000/svg" viewBox="137.878 92.878 64.243 64.243" color-interpolation-filters="sRGB">
    <style>
        /* Default: Light Mode (Black) */
        .color-filter {
        filter: url(#blackFilter);
        }

        /* Dark Mode: White */
        html.dark .color-filter {
        filter: url(#whiteFilter);
        }
    </style>
    <g class="icon-text-wrapper icon-svg-group iconsvg">
        <g class="iconsvg-imagesvg icon_container color-filter" transform="translate(138.508 93.508)">
            <path class="image-rect" fill="none" d="M0 0h62.983v62.983H0z"/>
            <svg viewBox="0 0 60 53.904" width="62.983" height="62.983" class="image-svg-svg bn" style="overflow:visible">
                <g mask="url(#a)">
                    <svg viewBox="0 0 72.35 65" xmlns="http://www.w3.org/2000/svg" style="overflow:visible" width="60" height="53.904">
                        <path d="M64.35 0a8 8 0 0 1 7.907 9.216l-7.538 49A8 8 0 0 1 56.812 65H8a8 8 0 0 1-7.907-9.216l7.538-49A8 8 0 0 1 15.538 0H64.35z" fill="#000"/>
                    </svg>
                    <svg xmlns="http://www.w3.org/2000/svg" viewBox="0.011 -0.015 95.272 100.01" width="40" height="35.936" x="10" y="8.984">
                        <path d="M84.85 58.33a10.42 10.42 0 0 1 9.23 15.28A50 50 0 1 1 94 26.22a10.44 10.44 0 0 1-9.14 15.45 10.27 10.27 0 0 1-9.09-5.34 29.18 29.18 0 1 0-.07 27.46 10.4 10.4 0 0 1 9.15-5.46z"/>
                        <circle cx="50" cy="50" r="16.67"/>
                    </svg>
                </g>
                <mask id="a">
                    <svg viewBox="0 0 72.35 65" xmlns="http://www.w3.org/2000/svg" style="overflow:visible" width="60" height="53.904" fill="#fff">
                        <path d="M64.35 0a8 8 0 0 1 7.907 9.216l-7.538 49A8 8 0 0 1 56.812 65H8a8 8 0 0 1-7.907-9.216l7.538-49A8 8 0 0 1 15.538 0H64.35z"/>
                    </svg>
                    <svg xmlns="http://www.w3.org/2000/svg" viewBox="0.011 -0.015 95.272 100.01" width="40" height="35.936" x="10" y="8.984">
                        <path d="M84.85 58.33a10.42 10.42 0 0 1 9.23 15.28A50 50 0 1 1 94 26.22a10.44 10.44 0 0 1-9.14 15.45 10.27 10.27 0 0 1-9.09-5.34 29.18 29.18 0 1 0-.07 27.46 10.4 10.4 0 0 1 9.15-5.46z"/>
                        <circle cx="50" cy="50" r="16.67"/>
                    </svg>
                </mask>
            </svg>
        </g>
    </g>
    <defs>
        <!-- Light Mode: Black -->
        <filter id="blackFilter">
            <feColorMatrix type="matrix" values="0 0 0 0 0
                                                 0 0 0 0 0
                                                 0 0 0 0 0
                                                 0 0 0 1 0"/>
        </filter>

        <!-- Dark Mode: White -->
        <filter id="whiteFilter">
            <feColorMatrix type="matrix" values="1 0 0 0 1
                                                 0 1 0 0 1
                                                 0 0 1 0 1
                                                 0 0 0 1 0"/>
        </filter>
    </defs>
</svg>
